<?xml version="1.0" encoding="utf-8"?>
<svg enable-background="new 0 0 224 224" id="Layer_1" version="1.1" viewBox="0 0 224 224" width="100%" x="0px" xml:space="preserve" xmlns="http://www.w3.org/2000/svg" xmlns:xlink="http://www.w3.org/1999/xlink" y="0px">
<path d=" M116.000000,225.000000   C77.333336,225.000000 39.166672,225.000000 1.000005,225.000000   C1.000003,150.333344 1.000003,75.666679 1.000002,1.000015   C75.666656,1.000010 150.333313,1.000010 224.999969,1.000005   C224.999985,75.666649 224.999985,150.333298 225.000000,224.999969   C188.833328,225.000000 152.666672,225.000000 116.000000,225.000000  M93.504349,144.161514   C111.653069,144.272736 129.801880,144.371719 147.950470,144.501358   C154.939697,144.551285 157.556152,142.052505 157.582748,134.972305   C157.625305,123.648674 157.620773,112.324593 157.572906,101.000977   C157.544968,94.391899 155.502609,92.343193 148.922104,92.321831   C136.432800,92.281296 123.943268,92.319191 111.453835,92.308159   C104.553322,92.302063 104.553345,92.287117 103.994476,85.640717   C103.573769,80.637489 101.372292,78.435104 96.410629,78.325073   C91.750061,78.221710 87.084557,78.223015 82.423279,78.301254   C77.129791,78.390083 74.420761,81.003693 74.399178,86.271309   C74.330933,102.923698 74.338150,119.576660 74.394852,136.229126   C74.412048,141.280670 76.952812,143.865860 82.018265,144.093979   C85.508728,144.251160 89.010788,144.150848 93.504349,144.161514  M112.022591,79.168335   C110.069901,80.956726 107.495163,82.632820 108.768723,85.778160   C109.983963,88.779480 112.984894,87.894875 115.362358,87.966576   C119.689941,88.097076 124.025970,88.094879 128.354614,87.989532   C131.102753,87.922653 134.660110,88.415474 134.488098,84.132523   C134.353088,80.770592 132.016830,78.563705 128.666321,78.438957   C123.363930,78.241516 118.022064,77.743141 112.022591,79.168335  z" fill="#000000" opacity="1.000000" stroke="none"/>
<path d=" M141.825775,136.602264   C138.532974,137.146103 136.577408,134.818756 134.203384,133.888489   C125.174980,130.350677 116.081863,128.120636 106.278839,128.245636   C101.439240,128.307343 97.981026,130.896988 94.064819,132.715393   C92.689407,133.354034 91.504135,134.175629 89.927574,133.969177   C89.046272,133.853760 88.306076,133.464218 88.076973,132.562775   C87.843285,131.643295 88.365929,131.090912 89.133224,130.574249   C98.561752,124.225510 109.375290,122.688393 119.792915,125.199745   C127.113441,126.964485 135.107132,128.156158 141.647995,132.872192   C143.446442,134.168915 146.035980,134.687973 141.825775,136.602264  z" fill="#000000" opacity="1.000000" stroke="none"/>
<path d=" M93.798920,97.076294   C95.544121,97.906189 96.949242,96.129395 98.754356,97.361160   C100.124313,99.817192 97.441063,102.653358 99.525017,105.178650   C96.644669,106.344620 94.387634,103.619484 92.433266,105.820381   C92.301834,105.968391 91.300285,105.708961 91.137375,105.405815   C89.880379,103.066841 91.834976,100.592041 90.788734,98.027199   C90.332420,96.908554 92.329224,96.775124 93.798920,97.076294  z" fill="#000000" opacity="1.000000" stroke="none"/>
<path d=" M126.842545,98.572189   C129.207718,95.702866 132.208374,98.087173 134.843979,97.245499   C135.545761,97.021400 136.219101,98.805702 135.515945,99.612755   C134.425674,100.864136 134.779663,101.712280 135.351379,103.072037   C136.229523,105.160522 135.354309,106.319412 132.957474,105.428726   C132.232040,105.159149 131.663162,104.131691 130.790604,104.640961   C126.597458,107.088234 125.851143,105.941101 127.892120,101.903580   C128.637802,100.428474 126.608574,100.100319 126.842545,98.572189  z" fill="#000000" opacity="1.000000" stroke="none"/>
<path d=" M107.287888,116.322250   C106.283051,115.151077 105.455055,114.323807 104.831673,113.363693   C104.343292,112.611481 104.467148,111.654083 105.282837,111.203224   C105.776215,110.930504 106.846764,110.850204 107.118515,111.158684   C110.188736,114.643898 113.136063,113.677475 116.205765,111.174461   C116.864769,110.637123 117.850441,110.815620 118.460426,111.511909   C119.258598,112.423019 118.889587,113.243362 118.200150,114.127167   C115.300537,117.844208 111.625534,118.032097 107.287888,116.322250  z" fill="#000000" opacity="1.000000" stroke="none"/>
</svg>